<svg xmlns="http://www.w3.org/2000/svg"  viewBox="-42 0 366 366.165"  id = 'root' ><path d="M163.633 34.977v-12.2c.125-12.46-9.88-22.66-22.336-22.777-12.461-.117-22.652 9.89-22.762 22.352v12.625a129.168 129.168 0 0 1 45.098 0zm0 0M141.082 366.164c23.234.008 42.598-17.789 44.543-40.941H96.539c1.945 23.152 21.309 40.949 44.543 40.941zm0 0M256.355 226.223a4.53 4.53 0 0 0 .727-.11v-61.508c0-64.855-51.965-117.613-116-117.613-64.031 0-116 52.758-116 117.613v61.508c.238.055.48.094.727.11zm0 0M25.563 240.223h231.039c14.074 0 25.48 11.41 25.48 25.48v20.043c0 14.07-11.406 25.477-25.48 25.477H25.562c-14.074 0-25.48-11.407-25.48-25.477v-20.043c0-14.07 11.406-25.48 25.48-25.48zm0 0" /></svg>